<svg width="151" height="108" viewBox="0 0 151 108" fill="none" xmlns="http://www.w3.org/2000/svg">
    <path d="M75.5 18C96.1979 18 114.888 23.0584 128.37 31.1836C141.872 39.3203 150 50.4226 150 62.5C150 74.5774 141.872 85.6797 128.37 93.8164C114.888 101.942 96.1979 107 75.5 107C54.8021 107 36.1123 101.942 22.6299 93.8164C9.12825 85.6797 1 74.5774 1 62.5C1 50.4226 9.12825 39.3203 22.6299 31.1836C36.1123 23.0584 54.8021 18 75.5 18Z" fill="#A8A8A8" stroke="black" stroke-width="2"/>
    <path d="M75.5 18C93.9852 18 110.673 22.6085 122.706 30.0068C134.756 37.4152 142 47.5173 142 58.5C142 69.4827 134.756 79.5848 122.706 86.9932C110.673 94.3915 93.9852 99 75.5 99C57.0148 99 40.3274 94.3915 28.2939 86.9932C16.2442 79.5848 9 69.4827 9 58.5C9 47.5173 16.2442 37.4152 28.2939 30.0068C40.3274 22.6085 57.0148 18 75.5 18Z" fill="#DB0000" stroke="#6C0000" stroke-width="2"/>
    <path d="M75.5 1C93.9852 1 110.673 5.60848 122.706 13.0068C134.756 20.4152 142 30.5173 142 41.5C142 52.4827 134.756 62.5848 122.706 69.9932C110.673 77.3915 93.9852 82 75.5 82C57.0148 82 40.3274 77.3915 28.2939 69.9932C16.2442 62.5848 9 52.4827 9 41.5C9 30.5173 16.2442 20.4152 28.2939 13.0068C40.3274 5.60848 57.0148 1 75.5 1Z" fill="#DB0000" stroke="#6C0000" stroke-width="2"/>
    <line x1="9" y1="40" x2="9" y2="62" stroke="#6C0000" stroke-width="2"/>
    <line x1="62" y1="81" x2="62" y2="99" stroke="#6C0000" stroke-width="2"/>
    <line x1="92" y1="81" x2="92" y2="98" stroke="#6C0000" stroke-width="2"/>
    <line x1="107" y1="78" x2="107" y2="94" stroke="#6C0000" stroke-width="2"/>
    <line x1="46" y1="78" x2="46" y2="95" stroke="#6C0000" stroke-width="2"/>
    <line x1="35" y1="74" x2="35" y2="91" stroke="#6C0000" stroke-width="2"/>
    <line x1="26" y1="69" x2="26" y2="86" stroke="#6C0000" stroke-width="2"/>
    <line x1="19" y1="63" x2="19" y2="80" stroke="#6C0000" stroke-width="2"/>
    <line x1="14" y1="57" x2="14" y2="73" stroke="#6C0000" stroke-width="2"/>
    <line x1="118" y1="73" x2="118" y2="89" stroke="#6C0000" stroke-width="2"/>
    <line x1="127" y1="67" x2="127" y2="84" stroke="#6C0000" stroke-width="2"/>
    <line x1="134" y1="61" x2="134" y2="78" stroke="#6C0000" stroke-width="2"/>
    <line x1="138" y1="55" x2="138" y2="72" stroke="#6C0000" stroke-width="2"/>
    <line x1="77" y1="81" x2="77" y2="100" stroke="#6C0000" stroke-width="2"/>
    <line x1="142" y1="42" x2="142" y2="64" stroke="#6C0000" stroke-width="2"/>
    <text x="75.5" y="40" text-anchor="middle" dominant-baseline="middle"
            font-size="28" font-family="Arial, sans-serif" font-weight="normal"
            fill="black">
        Stopped
    </text>
</svg>
