<?xml version="1.0" encoding="UTF-8"?>
<svg xmlns="http://www.w3.org/2000/svg" version="1.1" viewBox="0 0 613.283 606.103">
  <defs>
    <style>
      .cls-1 {
        fill: #f8ae1c;
      }

      .cls-1, .cls-2, .cls-3 {
        stroke-width: 0px;
      }

      .cls-2 {
        fill: #154161;
      }

      .cls-3 {
        fill: #a9c8d9;
      }

      .cls-4 {
        display: none;
      }
    </style>
  </defs>
  <g id="Layer_1" data-name="Layer 1" class="cls-4">
    <path class="cls-2" d="M115.662,255.86h0c0-6.235-5.055-11.29-11.29-11.29h-57.842c-3.331,0-6.031,2.7-6.031,6.031v65.475c0,6.234,5.054,11.287,11.287,11.287h0c6.234,0,11.287-5.054,11.287-11.287v-39.348c0-5.29,4.288-9.579,9.579-9.579h31.719c6.235,0,11.29-5.055,11.29-11.29Z"/>
    <path class="cls-3" d="M199.292,316.074h0c0,6.235-5.055,11.29-11.29,11.29h-58.126c-3.174,0-5.747-2.573-5.747-5.747v-65.76c0-6.234,5.054-11.287,11.287-11.287h0c6.234,0,11.287,5.054,11.287,11.287v39.632c0,5.133,4.161,9.294,9.294,9.294h32.004c6.235,0,11.29,5.055,11.29,11.29Z"/>
    <rect class="cls-1" x="176.817" y="244.57" width="22.58" height="22.58" rx="6.021" ry="6.021"/>
    <g>
      <path class="cls-2" d="M241.145,245.044h5.012v4.11c.75-1.238,1.848-2.252,3.294-3.04,1.445-.788,2.957-1.182,4.533-1.182h2.928v4.674h-2.928c-2.29,0-4.13.703-5.518,2.11-1.39,1.409-2.083,3.258-2.083,5.547v15.879h-5.238v-28.097Z"/>
      <path class="cls-2" d="M265.207,271.254c-1.314-1.257-1.97-3.294-1.97-6.108v-31.421h5.236v31.251c0,1.276.262,2.196.788,2.759.526.564,1.388.845,2.59.845h2.252v4.561h-2.477c-2.966,0-5.106-.629-6.42-1.887Z"/>
      <path class="cls-2" d="M294.244,270.692c-1.99-1.933-2.984-4.476-2.984-7.63v-7.546c0-3.302.985-5.949,2.956-7.939,1.972-1.989,4.57-2.984,7.799-2.984h4.561c3.078,0,5.555.864,7.432,2.59,1.876,1.728,2.816,4.016,2.816,6.869h-5.18c0-1.464-.461-2.636-1.379-3.519-.921-.881-2.15-1.322-3.689-1.322h-4.504c-1.652,0-2.993.591-4.026,1.773-1.033,1.182-1.549,2.749-1.549,4.701v7.208c0,1.839.525,3.313,1.576,4.42,1.05,1.107,2.402,1.661,4.054,1.661h4.504c1.577,0,2.844-.554,3.801-1.661.958-1.107,1.435-2.581,1.435-4.42h5.18c0,3.19-.957,5.771-2.871,7.742-1.914,1.97-4.43,2.956-7.546,2.956h-4.561c-3.229,0-5.838-.966-7.827-2.899Z"/>
      <path class="cls-2" d="M324.902,270.607c-2.008-1.99-3.012-4.597-3.012-7.827v-7.319c0-3.267,1.014-5.894,3.04-7.884,2.028-1.989,4.711-2.984,8.052-2.984h4.73c3.34,0,6.025.996,8.051,2.984,2.028,1.99,3.041,4.617,3.041,7.884v7.319c0,3.229-1.024,5.837-3.069,7.827-2.047,1.99-4.739,2.984-8.081,2.984h-4.786c-3.303,0-5.959-.994-7.967-2.984ZM337.599,268.975c1.802,0,3.247-.582,4.336-1.746,1.088-1.164,1.632-2.722,1.632-4.674v-6.926c0-1.95-.535-3.509-1.604-4.673-1.07-1.163-2.488-1.745-4.251-1.745h-4.73c-1.765,0-3.181.582-4.251,1.745-1.07,1.164-1.605,2.723-1.605,4.673v6.926c0,1.952.525,3.51,1.576,4.674,1.05,1.164,2.458,1.746,4.224,1.746h4.673Z"/>
      <path class="cls-2" d="M355.56,245.044h5.011v4.11c.751-1.238,1.849-2.252,3.295-3.04,1.445-.788,2.956-1.182,4.533-1.182h2.927v4.674h-2.927c-2.291,0-4.13.703-5.518,2.11-1.39,1.409-2.084,3.258-2.084,5.547v15.879h-5.236v-28.097Z"/>
      <path class="cls-2" d="M377.041,270.748c-2.008-1.895-3.012-4.383-3.012-7.46v-7.772c0-3.302,1.004-5.949,3.012-7.939,2.008-1.989,4.665-2.984,7.967-2.984h4.618c3.19,0,5.762.977,7.714,2.928,1.951,1.952,2.928,4.542,2.928,7.77v5.293h-21.003v2.704c0,1.726.525,3.116,1.576,4.165,1.05,1.052,2.44,1.577,4.166,1.577h4.336c1.69,0,3.06-.441,4.11-1.323,1.05-.882,1.577-2.055,1.577-3.519h5.123c0,2.816-.994,5.086-2.984,6.813-1.99,1.728-4.617,2.59-7.883,2.59h-4.28c-3.303,0-5.959-.947-7.967-2.843ZM395.032,256.418v-1.126c0-1.876-.498-3.379-1.493-4.504-.996-1.127-2.3-1.69-3.913-1.69h-4.618c-1.726,0-3.116.591-4.166,1.774-1.052,1.182-1.576,2.749-1.576,4.701v.844h15.767Z"/>
      <path class="cls-2" d="M245.904,325.076c-1.371-1.352-2.055-3.528-2.055-6.532v-14.977h-4.956v-4.562h5.012v-8.502h5.18v8.502h7.32v4.562h-7.32v14.865c0,1.464.29,2.516.873,3.153.581.639,1.528.958,2.843.958h3.604v4.561h-3.83c-3.078,0-5.302-.676-6.672-2.027Z"/>
      <path class="cls-2" d="M264.147,324.709c-2.008-1.895-3.013-4.383-3.013-7.46v-7.772c0-3.302,1.005-5.949,3.013-7.939,2.008-1.989,4.664-2.984,7.967-2.984h4.617c3.19,0,5.762.977,7.714,2.928,1.952,1.952,2.928,4.542,2.928,7.77v5.293h-21.003v2.704c0,1.726.526,3.116,1.577,4.165,1.05,1.052,2.439,1.577,4.166,1.577h4.336c1.689,0,3.059-.441,4.11-1.323,1.05-.882,1.576-2.055,1.576-3.519h5.124c0,2.816-.996,5.086-2.984,6.813-1.99,1.728-4.618,2.59-7.883,2.59h-4.28c-3.304,0-5.959-.947-7.967-2.843ZM282.137,310.379v-1.126c0-1.876-.498-3.379-1.492-4.504-.996-1.127-2.3-1.69-3.914-1.69h-4.617c-1.728,0-3.116.591-4.166,1.774-1.052,1.182-1.577,2.749-1.577,4.701v.844h15.767Z"/>
      <path class="cls-2" d="M295.707,324.653c-1.99-1.933-2.984-4.476-2.984-7.63v-7.546c0-3.302.985-5.949,2.956-7.939,1.972-1.989,4.57-2.984,7.799-2.984h4.561c3.078,0,5.555.864,7.432,2.59,1.876,1.728,2.816,4.016,2.816,6.869h-5.18c0-1.464-.461-2.636-1.379-3.519-.921-.881-2.15-1.322-3.689-1.322h-4.504c-1.652,0-2.993.591-4.026,1.773-1.033,1.182-1.549,2.749-1.549,4.701v7.208c0,1.839.525,3.313,1.576,4.42,1.05,1.107,2.402,1.661,4.054,1.661h4.504c1.577,0,2.844-.554,3.801-1.661.958-1.107,1.435-2.581,1.435-4.42h5.18c0,3.19-.957,5.771-2.871,7.742-1.914,1.97-4.43,2.956-7.546,2.956h-4.561c-3.229,0-5.838-.966-7.827-2.899Z"/>
      <path class="cls-2" d="M324.479,287.687h5.236v14.865c.863-1.201,1.951-2.167,3.266-2.898,1.313-.733,2.608-1.099,3.885-1.099h3.83c2.702,0,4.888.902,6.56,2.702,1.67,1.802,2.505,4.168,2.505,7.096v18.75h-5.236v-18.75c0-1.54-.394-2.788-1.182-3.745-.788-.958-1.821-1.435-3.098-1.435h-3.603c-1.615,0-3.079.609-4.392,1.829-1.315,1.22-2.159,2.807-2.534,4.758v17.343h-5.236v-39.416Z"/>
      <path class="cls-2" d="M357.305,299.005h5.011v3.886c.826-1.276,1.923-2.319,3.295-3.125,1.37-.806,2.731-1.211,4.082-1.211h3.716c2.704,0,4.889.902,6.561,2.702,1.669,1.802,2.505,4.168,2.505,7.096v18.75h-5.236v-18.75c0-1.54-.394-2.788-1.182-3.745-.789-.958-1.821-1.435-3.098-1.435h-3.491c-1.615,0-3.079.619-4.392,1.858-1.315,1.238-2.159,2.852-2.534,4.841v17.231h-5.236v-28.097Z"/>
      <path class="cls-2" d="M391.905,324.568c-2.008-1.99-3.012-4.597-3.012-7.827v-7.319c0-3.267,1.014-5.894,3.04-7.884,2.028-1.989,4.711-2.984,8.052-2.984h4.73c3.34,0,6.025.996,8.051,2.984,2.028,1.99,3.041,4.617,3.041,7.884v7.319c0,3.229-1.024,5.837-3.069,7.827-2.047,1.99-4.739,2.984-8.081,2.984h-4.786c-3.303,0-5.959-.994-7.967-2.984ZM404.602,322.936c1.802,0,3.247-.582,4.336-1.746,1.088-1.164,1.632-2.722,1.632-4.674v-6.926c0-1.95-.535-3.509-1.604-4.673-1.07-1.163-2.488-1.745-4.251-1.745h-4.73c-1.765,0-3.181.582-4.251,1.745-1.07,1.164-1.605,2.723-1.605,4.673v6.926c0,1.952.525,3.51,1.576,4.674,1.05,1.164,2.458,1.746,4.224,1.746h4.673Z"/>
      <path class="cls-2" d="M424.534,325.216c-1.314-1.257-1.97-3.294-1.97-6.108v-31.421h5.236v31.251c0,1.276.262,2.196.788,2.759.526.564,1.388.845,2.59.845h2.252v4.561h-2.477c-2.966,0-5.106-.629-6.42-1.887Z"/>
      <path class="cls-2" d="M440.047,324.568c-2.008-1.99-3.012-4.597-3.012-7.827v-7.319c0-3.267,1.014-5.894,3.04-7.884,2.028-1.989,4.711-2.984,8.052-2.984h4.73c3.34,0,6.025.996,8.051,2.984,2.028,1.99,3.041,4.617,3.041,7.884v7.319c0,3.229-1.024,5.837-3.069,7.827-2.047,1.99-4.739,2.984-8.081,2.984h-4.786c-3.303,0-5.959-.994-7.967-2.984ZM452.744,322.936c1.802,0,3.247-.582,4.336-1.746,1.088-1.164,1.632-2.722,1.632-4.674v-6.926c0-1.95-.535-3.509-1.604-4.673-1.07-1.163-2.488-1.745-4.251-1.745h-4.73c-1.765,0-3.181.582-4.251,1.745-1.07,1.164-1.605,2.723-1.605,4.673v6.926c0,1.952.525,3.51,1.576,4.674,1.05,1.164,2.458,1.746,4.224,1.746h4.673Z"/>
      <path class="cls-2" d="M473.831,336.337c-1.746-1.464-2.713-3.378-2.901-5.744h5.238c.112,1.014.562,1.84,1.351,2.478.788.638,1.764.957,2.928.957h4.786c1.69,0,3.013-.591,3.969-1.773.958-1.182,1.437-2.807,1.437-4.87v-3.772c-.826,1.013-1.858,1.84-3.098,2.477-1.238.639-2.421.958-3.547.958h-4.054c-2.028,0-3.83-.451-5.406-1.352-1.576-.9-2.796-2.177-3.66-3.829-.864-1.652-1.294-3.547-1.294-5.687v-6.308c0-2.213.459-4.185,1.379-5.911.92-1.728,2.205-3.06,3.857-3.998,1.652-.938,3.548-1.408,5.687-1.408h3.716c1.202,0,2.44.329,3.716.985,1.276.658,2.272,1.493,2.984,2.505v-3.04h4.956v28.379c0,3.453-.949,6.173-2.843,8.165-1.896,1.989-4.496,2.984-7.799,2.984h-4.786c-2.666,0-4.87-.732-6.616-2.196ZM484.163,322.485c1.726,0,3.2-.694,4.421-2.083,1.219-1.388,1.904-3.171,2.055-5.35v-5.911c-.151-1.764-.788-3.201-1.914-4.307-1.127-1.108-2.478-1.661-4.054-1.661h-3.886c-1.765,0-3.201.628-4.307,1.886-1.108,1.258-1.661,2.919-1.661,4.983v5.968c0,1.914.506,3.473,1.52,4.674,1.014,1.202,2.289,1.801,3.829,1.801h3.998Z"/>
      <path class="cls-2" d="M504.771,294.303c-.676-.656-1.014-1.51-1.014-2.562s.338-1.905,1.014-2.563c.675-.656,1.557-.985,2.646-.985s1.961.329,2.618.985c.656.658.985,1.511.985,2.563s-.329,1.905-.985,2.562c-.656.658-1.529.985-2.618.985s-1.972-.328-2.646-.985ZM504.771,299.005h5.236v28.097h-5.236v-28.097Z"/>
      <path class="cls-2" d="M520.79,324.709c-2.008-1.895-3.012-4.383-3.012-7.46v-7.772c0-3.302,1.004-5.949,3.012-7.939,2.008-1.989,4.665-2.984,7.967-2.984h4.618c3.19,0,5.762.977,7.714,2.928,1.951,1.952,2.928,4.542,2.928,7.77v5.293h-21.003v2.704c0,1.726.525,3.116,1.576,4.165,1.05,1.052,2.44,1.577,4.166,1.577h4.336c1.69,0,3.06-.441,4.11-1.323s1.577-2.055,1.577-3.519h5.123c0,2.816-.994,5.086-2.984,6.813-1.99,1.728-4.617,2.59-7.883,2.59h-4.28c-3.303,0-5.959-.947-7.967-2.843ZM538.781,310.379v-1.126c0-1.876-.498-3.379-1.493-4.504-.996-1.127-2.3-1.69-3.913-1.69h-4.618c-1.726,0-3.116.591-4.166,1.774-1.052,1.182-1.576,2.749-1.576,4.701v.844h15.767Z"/>
      <path class="cls-2" d="M551.844,325.047c-1.84-1.669-2.76-3.875-2.76-6.616h5.124c0,1.388.45,2.516,1.352,3.377.9.865,2.101,1.296,3.603,1.296h4.956c1.426,0,2.571-.272,3.434-.817.863-.543,1.294-1.267,1.294-2.167v-1.634c0-.599-.253-1.134-.76-1.604s-1.155-.779-1.943-.929l-9.741-1.69c-2.065-.375-3.716-1.155-4.956-2.337-1.238-1.182-1.858-2.562-1.858-4.138v-1.858c0-2.214.882-3.998,2.647-5.35,1.763-1.351,4.129-2.027,7.095-2.027h4.73c2.815,0,5.076.77,6.784,2.308,1.708,1.54,2.563,3.586,2.563,6.138h-5.124c-.038-1.201-.442-2.167-1.211-2.901-.77-.731-1.773-1.097-3.012-1.097h-4.674c-1.39,0-2.487.282-3.294.844-.809.562-1.211,1.314-1.211,2.253v1.407c0,.6.262,1.126.788,1.576.525.451,1.201.77,2.027.958l9.854,1.746c1.951.337,3.538,1.088,4.758,2.252,1.22,1.164,1.831,2.516,1.831,4.053v2.197c0,2.177-.921,3.932-2.76,5.265-1.84,1.332-4.26,1.998-7.263,1.998h-4.956c-3.04,0-5.48-.834-7.319-2.505Z"/>
    </g>
  </g>
  <g id="Layer_2" data-name="Layer 2">
    <path class="cls-2" d="M298.578,187.799h0c0-12.374-10.031-22.405-22.405-22.405h-114.784c-6.61,0-11.969,5.358-11.969,11.969v129.932c0,12.371,10.029,22.399,22.399,22.399h0c12.371,0,22.399-10.029,22.399-22.399v-78.084c0-10.498,8.51-19.008,19.008-19.008h62.945c12.374,0,22.405-10.031,22.405-22.405Z"/>
    <path class="cls-3" d="M464.538,307.29h0c0,12.374-10.031,22.405-22.405,22.405h-115.348c-6.298,0-11.404-5.106-11.404-11.404v-130.497c0-12.371,10.029-22.399,22.399-22.399h0c12.371,0,22.399,10.029,22.399,22.399v78.648c0,10.186,8.258,18.444,18.444,18.444h63.509c12.374,0,22.405,10.031,22.405,22.405Z"/>
    <rect class="cls-1" x="419.936" y="165.395" width="44.809" height="44.809" rx="11.949" ry="11.949"/>
    <g>
      <path class="cls-2" d="M148.878,387.779h9.463v7.763c1.419-2.339,3.492-4.254,6.222-5.742,2.728-1.489,5.582-2.233,8.561-2.233h5.528v8.825h-5.528c-4.327,0-7.8,1.331-10.422,3.99-2.624,2.657-3.936,6.151-3.936,10.474v29.989h-9.89v-53.066Z"/>
      <path class="cls-2" d="M192.372,437.284c-2.484-2.376-3.723-6.222-3.723-11.54v-59.338h9.892v59.02c0,2.412.493,4.148,1.489,5.212.991,1.062,2.622,1.592,4.892,1.592h4.254v8.615h-4.68c-5.601,0-9.643-1.186-12.122-3.561Z"/>
      <path class="cls-2" d="M246.179,436.219c-3.758-3.652-5.636-8.455-5.636-14.409v-14.249c0-6.24,1.863-11.238,5.584-14.996,3.721-3.758,8.63-5.636,14.727-5.636h8.615c5.811,0,10.491,1.631,14.037,4.892,3.544,3.26,5.316,7.588,5.316,12.975h-9.784c0-2.765-.868-4.981-2.605-6.646-1.737-1.666-4.059-2.501-6.964-2.501h-8.507c-3.122,0-5.656,1.116-7.605,3.349-1.949,2.235-2.925,5.197-2.925,8.881v13.611c0,3.475.993,6.257,2.979,8.349,1.984,2.092,4.535,3.137,7.657,3.137h8.507c2.977,0,5.37-1.045,7.179-3.137,1.807-2.092,2.711-4.874,2.711-8.349h9.784c0,6.028-1.809,10.9-5.424,14.621-3.615,3.723-8.366,5.584-14.249,5.584h-8.613c-6.099,0-11.025-1.824-14.784-5.476Z"/>
      <path class="cls-2" d="M305.145,436.059c-3.793-3.756-5.688-8.685-5.688-14.781v-13.825c0-6.166,1.915-11.129,5.742-14.887,3.829-3.758,8.897-5.636,15.208-5.636h8.933c6.309,0,11.378,1.878,15.205,5.636,3.829,3.758,5.744,8.721,5.744,14.887v13.825c0,6.097-1.934,11.025-5.796,14.781-3.866,3.76-8.951,5.636-15.262,5.636h-9.039c-6.238,0-11.255-1.876-15.048-5.636ZM329.126,432.976c3.403,0,6.132-1.099,8.189-3.297,2.055-2.196,3.083-5.138,3.083-8.825v-13.081c0-3.687-1.01-6.629-3.029-8.827-2.021-2.196-4.699-3.297-8.029-3.297h-8.933c-3.334,0-6.008,1.101-8.029,3.297-2.021,2.198-3.031,5.141-3.031,8.827v13.081c0,3.687.991,6.629,2.977,8.825,1.984,2.198,4.643,3.297,7.977,3.297h8.825Z"/>
      <path class="cls-2" d="M364.11,387.779h9.466v7.763c1.417-2.339,3.49-4.254,6.22-5.742,2.728-1.489,5.584-2.233,8.561-2.233h5.53v8.825h-5.53c-4.325,0-7.8,1.331-10.422,3.99-2.624,2.657-3.933,6.151-3.933,10.474v29.989h-9.892v-53.066Z"/>
      <path class="cls-2" d="M405.744,436.325c-3.793-3.579-5.688-8.276-5.688-14.091v-14.673c0-6.24,1.895-11.238,5.688-14.996,3.793-3.758,8.81-5.636,15.048-5.636h8.721c6.026,0,10.883,1.843,14.569,5.53,3.685,3.687,5.53,8.579,5.53,14.675v9.996h-39.667v5.104c0,3.263.991,5.885,2.977,7.871,1.984,1.986,4.608,2.977,7.869,2.977h8.189c3.191,0,5.779-.833,7.763-2.499,1.984-1.664,2.979-3.881,2.979-6.646h9.675c0,5.316-1.878,9.608-5.636,12.867-3.758,3.263-8.719,4.892-14.887,4.892h-8.083c-6.238,0-11.255-1.789-15.048-5.37ZM439.722,409.261v-2.127c0-3.546-.941-6.38-2.819-8.509-1.88-2.125-4.344-3.189-7.391-3.189h-8.721c-3.26,0-5.885,1.116-7.869,3.349-1.986,2.233-2.977,5.195-2.977,8.879v1.597h29.777Z"/>
    </g>
  </g>
  <g id="Layer_3" data-name="Layer 3" class="cls-4">
    <path class="cls-2" d="M295.536,196.428h0c0-16.8-13.619-30.419-30.419-30.419H109.274c-8.974,0-16.25,7.275-16.25,16.25v176.41c0,16.796,13.616,30.412,30.412,30.412h0c16.796,0,30.412-13.616,30.412-30.412v-106.014c0-14.253,11.554-25.807,25.807-25.807h85.461c16.8,0,30.419-13.619,30.419-30.419Z"/>
    <path class="cls-3" d="M520.86,358.662h0c0,16.8-13.619,30.419-30.419,30.419h-156.609c-8.551,0-15.484-6.932-15.484-15.484v-177.176c0-16.796,13.616-30.412,30.412-30.412h0c16.796,0,30.412,13.616,30.412,30.412v106.781c0,13.83,11.211,25.041,25.041,25.041h86.227c16.8,0,30.419,13.619,30.419,30.419Z"/>
    <rect class="cls-1" x="460.304" y="166.009" width="60.838" height="60.838" rx="16.223" ry="16.223"/>
  </g>
</svg>